<svg width="1380" height="353" viewBox="0 0 1380 353" fill="none" xmlns="http://www.w3.org/2000/svg">
<g clip-path="url(#clip0)">
<path d="M729.218 252.609C729.028 252.609 728.873 252.525 729.218 252.609V252.609Z" fill="black"/>
<path d="M184.081 242.85C186.023 242.252 186.192 242.322 187.487 243.898C189.892 246.759 191.428 250.248 191.913 253.953C192.239 256.358 192.05 258.804 191.359 261.129C190.667 263.455 189.489 265.607 187.902 267.442L185.932 266.739C186.375 266.162 186.746 265.534 187.036 264.867C188.141 262.376 186.875 260.525 185.017 259.991C182.847 259.449 180.648 259.029 178.431 258.731C177.347 258.555 176.235 258.506 174.913 258.379C174.673 256.268 174.976 254.221 174.772 252.244C174.568 250.266 174.146 248.282 173.801 246.15C174.589 245.84 175.293 245.524 176.017 245.299C178.726 244.482 181.4 243.687 184.081 242.85Z" fill="black"/>
<path d="M171.38 269.208C171.114 268.566 170.911 267.899 170.775 267.217C172.319 267.161 173.859 267.4 175.314 267.921C176.57 268.411 177.861 268.806 179.177 269.103C180.411 269.414 181.71 269.355 182.911 268.933C184.112 268.512 185.163 267.746 185.932 266.732L187.902 267.435C184.538 271.552 180.127 274.169 175.236 276.062C174.901 276.204 174.574 276.366 174.258 276.547L172.408 276.343C172.506 276.287 172.6 276.223 172.689 276.153C172.978 275.98 173.229 275.751 173.429 275.48C173.629 275.208 173.772 274.9 173.851 274.573C173.931 274.245 173.944 273.905 173.891 273.573C173.837 273.24 173.718 272.921 173.54 272.635C172.9 271.439 172.049 270.376 171.38 269.208Z" fill="black"/>
<path d="M234.54 147.646C234.601 148.996 235.172 150.271 236.137 151.217C237.102 152.162 238.389 152.707 239.74 152.741C241.147 152.757 242.506 152.223 243.527 151.253C244.548 150.284 245.15 148.955 245.207 147.548C245.163 146.138 244.577 144.8 243.57 143.812C242.563 142.825 241.213 142.265 239.803 142.249C238.394 142.282 237.055 142.866 236.071 143.875C235.087 144.883 234.537 146.237 234.54 147.646ZM198.309 147.4C198.309 150.067 201.123 152.825 203.783 152.776C206.443 152.727 209.187 149.926 209.131 147.273C209.075 144.621 206.225 141.813 203.664 141.855C201.102 141.898 198.288 144.761 198.309 147.4ZM164.344 108.657C164.344 108.453 164.555 108.277 164.787 107.897C165.342 108.165 165.87 108.485 166.363 108.854C169.517 111.743 172.952 114.31 176.615 116.517C178.449 117.72 180.626 118.291 182.814 118.142C183.216 115.264 182.16 112.577 181.914 109.825C181.668 107.074 180.753 104.583 180.788 101.881C181.611 101.719 181.787 102.289 182.062 102.761C182.765 104.034 183.469 105.315 184.257 106.553C186.189 109.89 189.229 112.444 192.849 113.773C194.221 113.308 195.558 112.577 196.944 112.464C198.33 112.351 199.808 112.823 201.398 113.062C202.608 112.084 203.868 110.951 205.233 109.994C206.677 108.926 208.196 107.962 209.778 107.109C214.387 104.731 219.066 104.808 223.732 107.018C226.369 108.282 228.86 109.83 231.162 111.634C231.867 112.173 232.635 112.624 233.449 112.978C234.153 113.287 234.99 113.294 235.68 113.618C236.293 114.002 236.861 114.453 237.375 114.962C238.521 114.375 239.536 113.562 240.359 112.571C241.181 111.581 241.794 110.433 242.16 109.199C242.864 106.912 243.075 104.471 243.504 102.085C245.277 103.236 246.757 104.785 247.824 106.61C249.038 108.314 249.738 110.331 249.84 112.422C249.942 114.512 249.443 116.588 248.401 118.403C247.789 119.571 247.198 120.739 246.424 122.259C246.906 122.177 247.377 122.045 247.831 121.865C250.646 120.197 252.321 117.53 253.721 114.673C254.27 113.569 254.805 112.45 255.325 111.331C257.563 106.504 261.714 103.964 266.408 102.092C266.57 102.029 266.816 102.191 267.111 102.282C267.759 103.689 266.408 105.019 266.703 106.631L269.926 108.509C269.571 108.982 269.173 109.42 268.737 109.818C266.626 111.373 265.922 113.463 266.035 116.01C266.075 117.92 265.974 119.829 265.732 121.724C265.57 123.171 265.268 124.599 264.832 125.988C263.593 129.844 261.06 132.236 256.916 132.828C254.457 133.116 251.969 133.033 249.534 132.581L245.601 131.983C246.171 133.545 246.903 134.798 247.043 136.149C247.184 137.5 246.678 138.759 246.424 140.293C246.873 140.475 247.348 140.587 247.831 140.624C248.595 140.545 249.353 140.411 250.097 140.223C250.365 142.102 248.62 142.805 248.183 144.36C248.266 144.854 248.383 145.34 248.535 145.817C248.737 146.282 248.841 146.784 248.841 147.291C248.841 147.798 248.737 148.3 248.535 148.765C248.269 149.327 248.123 149.939 248.107 150.56C248.091 151.182 248.206 151.8 248.444 152.375C250.555 157.469 249.351 162.381 247.269 167.039C246.199 169.424 246.178 171.183 247.824 173.139C248.57 174.127 249.204 175.194 249.717 176.32C251.258 179.317 251.223 180.486 249.52 183.736C250.505 184.904 251.793 185.566 252.229 187.255C251.272 189.07 249.337 189.851 247.444 190.308C244.069 191.132 240.645 191.743 237.192 192.138C233.674 192.518 230.283 191.568 226.877 190.892C225.568 190.632 224.273 190.287 222.943 189.971C222.655 190.724 223.246 190.956 223.647 191.216C224.927 192.13 226.261 192.964 227.644 193.714C230.613 195.185 233.752 196.022 237.087 195.34C239.5 194.854 241.907 194.305 244.264 193.616C245.649 193.15 247.112 192.959 248.57 193.053C248.883 193.051 249.191 193.124 249.47 193.265C249.749 193.407 249.989 193.613 250.172 193.866C250.356 194.119 250.476 194.412 250.522 194.721C250.569 195.03 250.542 195.346 250.442 195.642C250.322 196.305 250.084 196.942 249.738 197.521C247.965 200.117 246.129 202.664 243.511 204.557C240.457 206.732 237.284 207.372 233.66 205.965C231.48 205.064 229.408 203.921 227.482 202.559C222.886 199.313 218.712 195.507 215.056 191.23C213.416 189.496 212.452 187.232 212.34 184.848C212.22 180.415 210.081 176.848 207.414 173.625C204.569 169.971 200.947 166.995 196.81 164.914C194.583 163.819 192.588 162.304 190.935 160.453C188.861 158.351 187.612 155.574 187.416 152.628C187.304 150.517 186.762 148.406 187.36 146.295C187.484 145.447 187.496 144.586 187.395 143.734C184.581 142.932 181.977 142.327 179.465 141.433C175.831 140.207 172.516 138.185 169.762 135.515C167.731 133.551 166.237 131.099 165.42 128.395C163.63 121.972 163.262 115.236 164.344 108.657Z" fill="black"/>
<path d="M131.892 58.6279C131.997 58.6683 132.091 58.7335 132.166 58.8179C144.109 74.4154 156.045 90.0223 167.975 105.639C168.148 105.916 168.292 106.211 168.404 106.518L168.059 106.891C167.331 106.419 166.579 105.985 165.807 105.589C165.481 105.422 165.123 105.327 164.757 105.311C164.391 105.296 164.025 105.361 163.687 105.5C163.348 105.64 163.044 105.852 162.795 106.122C162.546 106.391 162.359 106.711 162.247 107.06C161.948 108.009 161.712 108.978 161.543 109.959C160.586 110.205 160.326 109.438 159.946 108.946C155.353 102.984 150.77 97.0166 146.197 91.045C139.976 82.9389 133.766 74.8259 127.564 66.7058C126.86 65.8122 126.255 64.8904 125.453 63.7997L131.35 58.5505C131.532 58.5616 131.713 58.5875 131.892 58.6279Z" fill="black"/>
<path d="M151.284 278.912L156.576 278.567C157.807 280.305 158.954 281.811 159.967 283.401C160.103 283.61 160.181 283.852 160.193 284.101C160.205 284.35 160.151 284.598 160.036 284.819C159.92 285.04 159.748 285.227 159.537 285.36C159.326 285.493 159.084 285.567 158.834 285.575C158.073 285.704 157.291 285.583 156.604 285.23C154.669 283.732 152.705 282.212 151.446 280.038C151.333 279.673 151.278 279.293 151.284 278.912Z" fill="black"/>
<path d="M154.099 287.123C151.446 287.123 150.292 286.019 150.63 283.704C152.06 284.527 153.255 285.705 154.099 287.123Z" fill="black"/>
<path d="M107.165 336.414C109.192 336.231 110.916 337.35 112.985 337.427C112.147 335.26 109.952 334.795 108.509 333.261C108.283 331.796 108.338 330.301 108.671 328.857C112.956 327.97 117.544 328.913 122.09 331.636C122.564 331.237 122.968 330.761 123.286 330.229C123.49 329.759 123.564 329.242 123.501 328.734C123.438 328.225 123.24 327.743 122.927 327.337C122.241 326.454 121.501 325.615 120.711 324.825C120.098 324.206 119.402 323.671 118.269 322.714C121.33 323.101 123.145 324.571 125.031 325.908C126.906 327.228 128.383 329.036 129.302 331.136C130.204 331.145 131.099 330.971 131.933 330.627C132.767 330.282 133.524 329.774 134.157 329.131C135.624 327.744 136.997 326.261 138.267 324.691C139.062 323.762 139.674 322.7 140.378 321.693C143.509 324.227 143.896 325.458 143.277 330.637C146.133 330.552 147.562 329.722 150.419 326.415C151.249 327.822 150.01 329.293 150.658 330.834C151.249 330.651 151.854 330.503 152.431 330.278C154.537 329.485 156.632 328.671 158.715 327.836C159.874 327.39 161.155 327.375 162.324 327.794C164.041 328.308 165.843 328.561 167.559 329.011C171.521 330.053 175.349 329.117 179.198 328.308C181.372 327.864 182.885 326.732 183.511 324.543C183.638 324.196 183.784 323.855 183.947 323.523L187.029 323.094C187.832 320.708 187.135 318.013 188.479 315.642C189.679 313.271 191.228 311.094 193.074 309.183C193.003 310.414 192.989 310.921 192.933 311.413C192.644 313.982 192.229 316.55 192.764 319.153C192.925 319.917 193.2 320.653 193.58 321.335C193.992 321.898 194.464 322.414 194.988 322.876C196.993 321.011 198.787 319.189 200.75 317.563C202.774 315.779 205.221 314.541 207.857 313.967C206.886 317.028 204.916 319.716 206.049 323.213C206.777 322.877 207.482 322.494 208.16 322.066C211.033 319.894 214.125 318.026 217.385 316.494C219.221 315.656 221.093 314.861 223.478 315.452C223.281 315.933 223.023 316.387 222.711 316.803C221.441 317.922 220.403 319.28 219.657 320.8C219.486 321.524 219.406 322.266 219.418 323.009L222.162 321.792C224.203 320.863 226.201 319.808 228.298 319.02C230.979 318.006 233.744 317.669 236.51 318.851C236.865 318.96 237.231 319.033 237.6 319.069C239.486 317.514 240.331 315.051 241.998 313.44C243.096 313.44 243.117 314.277 243.328 314.847C243.983 316.627 244.426 318.492 245.538 320.019C250.203 320.152 251.828 318.963 253.981 313.939C255.149 315.663 256.303 317.458 257.5 319.153C257.725 319.47 258.203 319.618 258.654 319.899C260.434 318.281 260.237 316.381 259.667 314.551C259.014 312.807 258.267 311.1 257.429 309.436C258.97 309.724 259.73 310.752 260.715 311.357C261.7 311.962 262.545 312.666 263.488 313.278C264.431 313.89 265.599 314.594 266.675 315.178C267.653 315.698 268.688 316.128 269.94 316.705C270.067 315.037 268.913 314.059 268.645 312.799C268.378 311.54 267.942 310.196 267.724 308.88C267.487 307.558 267.327 306.224 267.245 304.883C267.168 303.539 267.245 302.188 267.245 300.851C268.146 300.753 268.315 301.309 268.357 301.837C268.618 304.191 269.373 306.465 270.573 308.507C271.418 310.048 271.573 310.133 273.55 310.984C274.253 309.239 274.957 307.466 275.766 305.756C277.877 301.499 280.833 298.072 285.35 296.228C286.258 295.863 287.172 295.398 288.2 295.701C288.312 296.615 287.602 296.932 287.172 297.397C285.756 298.851 284.616 300.551 283.809 302.414C282.908 304.651 282.507 306.917 283.76 309.112C284.126 309.19 284.365 309.316 284.562 309.267C292.419 307.419 300.286 305.557 308.162 303.68C308.373 302.512 307.459 301.858 306.896 301.105C301.59 294.12 296.266 287.151 290.923 280.199C285.247 272.783 279.564 265.374 273.874 257.971C262.259 242.786 250.646 227.597 239.036 212.403C238.389 211.545 237.403 210.834 237.403 209.588L245.186 206.774C245.685 207.344 246.298 207.977 246.825 208.674C261.367 227.696 275.921 246.725 290.487 265.761C299.559 277.633 308.643 289.504 317.739 301.372C318.97 302.969 320.448 304.37 321.722 305.932C323.129 307.677 324.487 309.485 325.817 311.294C326.167 311.866 326.475 312.463 326.739 313.081C325.845 314.488 324.677 314.713 323.628 315.03C317.296 316.93 310.963 318.914 304.545 320.603C293.47 323.53 282.317 326.197 271.228 329.096C266.753 330.264 262.179 330.764 257.64 331.502C250.991 332.593 244.313 333.508 237.65 334.507C230.876 335.511 224.102 336.526 217.328 337.554C210.89 338.525 204.459 339.594 198.013 340.488C191.343 341.417 184.644 342.184 177.959 343.021C169.832 344.041 161.705 345.09 153.564 346.089C148.638 346.687 143.713 347.18 138.837 347.764C134.375 348.291 129.928 348.889 125.467 349.424C120.668 350.001 115.862 350.543 111.064 351.113C107.721 351.507 104.386 351.936 101.044 352.323C100.444 352.355 99.8423 352.355 99.2423 352.323C98.8061 348.889 98.2291 345.596 98.3909 342.17C99.4263 341.294 100.657 340.681 101.98 340.382C104.231 339.721 106.11 338.63 107.165 336.414Z" fill="black"/>
<path d="M91.7906 267.386L100.234 272.107C100.474 274.725 100.706 277.504 100.98 280.277C101.381 284.4 101.839 288.517 102.205 292.647C102.448 293.915 102.395 295.223 102.05 296.468C101.619 296.289 101.199 296.087 100.79 295.863C98.9959 294.723 97.272 293.47 95.4003 292.436C94.7887 292.167 94.2688 291.725 93.9039 291.165C93.539 290.606 93.3451 289.952 93.3457 289.283C93.3105 287.94 93.1627 286.596 93.029 285.259C92.6209 281.248 92.1354 277.244 91.7976 273.226C91.6639 271.425 91.7906 269.631 91.7906 267.386Z" fill="black"/>
<path d="M96.4629 321.919C95.5833 315.586 95.323 309.373 94.6475 302.801C97.6098 304.208 99.2141 305.65 100.354 307.789C102.395 311.589 102.655 315.684 102.261 319.857C102.113 321.511 101.184 322.207 99.5589 322.186C98.5809 322.165 97.5957 322.017 96.4629 321.919Z" fill="black"/>
<path d="M83.0795 8.92226C85.5463 7.32199 88.4523 6.53457 91.3896 6.67059C94.5912 6.67059 97.7998 6.8465 101.065 8.62673C98.799 9.61184 96.681 9.77367 94.6615 10.2803C92.6421 10.7869 90.5452 11.3428 88.4976 11.9268C86.5555 12.4827 84.6275 13.0527 82.7136 13.693C80.7997 14.3333 78.7661 15.1003 76.1697 15.8813C78.1047 12.5672 80.5323 10.6743 83.0795 8.92226Z" fill="black"/>
<path d="M77.9148 271.094C78.0907 278.757 81.433 284.907 86.6822 290.198C87.3573 290.786 88.1223 291.261 88.948 291.606C94.1761 294.265 99.2423 297.178 103.619 301.126C104.863 302.26 106.001 303.506 107.018 304.848C107.966 306.112 108.654 307.551 109.043 309.083C109.432 310.614 109.514 312.207 109.283 313.77C109.013 317.022 108.177 320.2 106.814 323.164C105.955 324.997 105.596 327.024 105.772 329.04C105.823 330.718 105.698 332.397 105.399 334.05C105.281 334.95 104.897 335.795 104.297 336.477C103.697 337.159 102.907 337.646 102.029 337.877C100.745 338.286 99.4894 338.779 98.2713 339.355C93.4865 341.614 92.4521 342.585 89.9472 347.018C89.5992 346.607 89.284 346.169 89.0043 345.709C87.4 342.47 86.5189 338.922 86.4219 335.309C86.4499 333.179 86.7913 331.064 87.4351 329.033C87.724 327.931 88.335 326.941 89.1899 326.189C90.0449 325.437 91.1048 324.957 92.234 324.811C93.8972 324.564 95.5767 324.444 97.258 324.452C98.0391 324.452 98.8201 324.649 99.6082 324.663C102.542 324.663 103.999 323.53 104.4 320.582C104.574 318.791 104.635 316.991 104.583 315.192C104.585 312.829 104.106 310.49 103.176 308.317C102.098 305.703 100.312 303.441 98.018 301.787C94.7214 299.422 91.0344 297.654 87.1255 296.566C84.9335 296.021 82.945 294.856 81.3978 293.21C79.8287 291.458 78.2033 289.734 76.8101 287.841C73.7914 283.725 72.6937 278.926 72.159 273.951C71.5609 268.322 72.0534 262.77 72.5108 257.162C73.0244 250.829 73.3129 244.342 71.5679 238.051C70.7868 235.236 69.9917 232.457 67.5078 230.508C66.9534 230.103 66.5317 229.542 66.2962 228.897C66.0607 228.252 66.022 227.551 66.185 226.884C66.4383 225.927 66.0794 225.118 66.002 224.245C65.9284 223.687 65.986 223.118 66.1705 222.586C66.3549 222.053 66.6611 221.571 67.0645 221.178C68.5844 219.665 70.1325 218.194 71.582 216.618C73.0495 215.069 74.4285 213.439 75.7124 211.735C77.5185 209.299 78.8526 206.548 79.6458 203.622C82.5311 192.633 86.8811 182.082 92.5788 172.253C95.9333 166.646 100.197 161.635 105.195 157.427C118.47 145.919 133.343 136.396 149.349 129.155C153.325 127.353 157.441 125.861 161.684 124.152C162 124.655 162.257 125.194 162.451 125.756C164.076 134.587 169.635 139.984 177.678 143.164C179.859 144.03 182.146 144.642 184.447 145.395C185.087 146.366 184.82 147.506 184.792 148.603C184.665 151.527 185.144 154.445 186.199 157.174C188.029 161.684 191.512 164.696 195.656 166.884C199.098 168.798 202.214 171.247 204.888 174.139C206.435 175.776 207.706 177.653 208.652 179.698C209.322 180.997 209.721 182.419 209.828 183.877C209.963 187.398 211.371 190.751 213.789 193.313C215.647 195.269 217.525 197.204 219.503 199.034C220.034 199.446 220.466 199.971 220.769 200.571C221.073 201.171 221.238 201.831 221.255 202.503C221.255 204.065 221.304 205.634 221.318 207.203C221.318 207.963 221.318 208.723 221.318 209.581C221.669 209.647 222.029 209.647 222.381 209.581C223.084 209.251 223.788 208.821 224.435 208.427C227.25 206.823 228.319 206.893 230.831 208.821C231.901 209.645 232.942 210.496 234.033 211.305C234.921 211.91 235.634 212.737 236.102 213.704C236.57 214.671 236.776 215.743 236.7 216.815C236.7 217.153 236.7 217.519 236.7 217.828C236.368 219.815 236.653 221.856 237.516 223.675C237.86 224.392 238.014 225.185 237.965 225.978C237.915 226.771 237.664 227.538 237.235 228.207C236.855 228.911 236.439 229.551 236.151 230.036C236.608 232.851 237.171 235.518 237.432 238.185C237.85 242.016 236.882 245.871 234.701 249.049C233.294 251.104 231.472 252.18 229.016 251.997C224.893 251.688 221.072 250.59 218.117 247.424C216.041 245.214 213.895 243.061 211.706 240.781C210.616 240.887 209.511 241.013 208.413 241.098C203.861 241.436 200.356 238.938 199.083 234.526C198.302 231.817 198.091 229.016 197.619 226.258C197.509 225.37 197.311 224.496 197.028 223.647C196.226 221.572 194.397 220.896 192.384 221.93C191.504 222.425 190.658 222.977 189.851 223.584C184.348 227.363 178.48 230.381 171.922 231.859C169.523 232.401 167.06 232.668 164.618 233.027C163.732 233.161 162.817 233.125 161.937 233.287C159.176 233.827 156.324 233.677 153.634 232.851C152.825 231.943 153.156 230.972 153.325 229.973C153.796 227.208 154.253 224.435 154.619 221.656C154.701 220.769 154.635 219.875 154.422 219.01C154.343 218.814 154.215 218.64 154.052 218.505C153.889 218.37 153.694 218.278 153.486 218.236C153.278 218.243 153.075 218.301 152.895 218.407C152.716 218.513 152.566 218.662 152.459 218.841C152.164 219.565 151.997 220.334 151.967 221.114C151.992 224.044 151.568 226.961 150.707 229.762C150.575 230.193 150.485 230.636 150.44 231.085C150.158 233.266 151.08 234.878 153.177 235.497C155.222 236.142 157.373 236.381 159.51 236.2C162.409 235.91 165.303 235.581 168.193 235.215C175.708 234.272 182.47 231.338 188.817 227.341C190.147 226.504 191.413 225.561 192.743 224.724C193.263 224.471 193.808 224.27 194.368 224.126C194.882 225.778 195.21 227.482 195.346 229.206C195.379 229.875 195.172 230.534 194.762 231.064C191.794 235.2 187.719 238.415 183.004 240.338C178.428 242.228 173.581 243.383 168.643 243.758C165.392 243.962 162.141 244.138 158.891 244.342C157.927 244.398 156.73 244.053 156.322 245.355C156.02 246.312 157.117 247.03 159.059 246.994C161.874 246.945 164.689 246.762 167.503 246.628C168.495 246.579 169.494 246.509 170.613 246.438C172.021 249.957 172.949 253.327 172.232 256.993C171.612 260.223 171.901 260.659 175.215 261.166C177.65 261.532 180.141 261.722 182.568 261.961C183.384 262.045 184.222 262.172 184.56 262.988C184.961 263.973 184.25 264.712 183.68 265.388C183.329 265.837 182.863 266.182 182.332 266.388C181.8 266.593 181.223 266.651 180.661 266.556C179.114 266.332 177.594 265.953 176.123 265.423C174.656 264.848 173.102 264.529 171.528 264.48C168.65 264.374 167.355 266.218 168.446 268.871C168.981 269.978 169.59 271.047 170.268 272.072C170.536 272.551 170.81 273.022 171.12 273.564C170.974 273.744 170.793 273.892 170.589 274.001C170.385 274.11 170.161 274.177 169.93 274.199C169.7 274.221 169.467 274.196 169.246 274.127C169.025 274.058 168.82 273.945 168.643 273.796C167.841 273.198 167.194 272.389 166.448 271.685C166.152 271.383 165.799 271.141 165.409 270.975C165.02 270.808 164.602 270.72 164.178 270.716C163.755 270.711 163.334 270.79 162.941 270.948C162.549 271.106 162.191 271.34 161.888 271.636C161.466 272.009 161.135 272.473 160.748 272.882C158.426 275.344 155.562 276.189 152.03 275.851C152.019 275.279 152.071 274.708 152.185 274.148C152.853 272.241 153.501 270.313 154.296 268.47C156.456 263.544 156.231 258.619 154.57 253.693C152.91 248.768 149.778 244.546 145.993 240.957C137.549 233.02 127.402 229.474 115.947 229.298C114.708 229.298 113.47 229.298 112.232 229.298C111.784 229.278 111.34 229.377 110.944 229.586C110.771 229.708 110.625 229.867 110.519 230.05C110.412 230.233 110.346 230.437 110.325 230.649C110.361 230.854 110.448 231.048 110.576 231.212C110.705 231.377 110.873 231.507 111.064 231.592C111.83 231.762 112.616 231.824 113.4 231.774C118.231 231.666 123.052 232.275 127.705 233.583C133.621 235.088 139.072 238.035 143.572 242.16C146.809 245.01 149.433 248.489 151.284 252.384C153.726 257.732 154.148 263.15 151.544 268.568C149.433 272.98 148.455 277.716 147.632 282.479C147.126 285.399 147.85 287.405 151.277 289.305C152.252 289.859 153.334 290.202 154.45 290.311C156.259 290.459 157.938 291.307 159.13 292.675C159.981 293.569 160.741 294.547 161.543 295.49C161.94 296.033 162.388 296.537 162.88 296.996C163.059 297.113 163.261 297.19 163.472 297.221C163.684 297.253 163.899 297.238 164.105 297.178C164.234 297.124 164.351 297.043 164.449 296.942C164.547 296.841 164.623 296.721 164.673 296.589C164.723 296.458 164.745 296.317 164.74 296.177C164.734 296.036 164.7 295.898 164.639 295.771C164.409 295.139 164.079 294.547 163.661 294.019C162.578 292.731 161.424 291.507 160.291 290.255C159.925 289.846 159.552 289.445 159.263 289.129C159.362 288.087 160.178 288.059 160.671 287.721C163.155 285.934 163.528 283.894 161.782 281.389C160.966 280.206 160.115 279.053 159.228 277.821L164.154 273.374C164.822 274 165.392 274.514 165.941 275.056C166.826 275.932 167.933 276.549 169.143 276.843C169.687 276.995 170.257 277.033 170.817 276.953C171.377 276.873 171.914 276.677 172.393 276.379L174.244 276.583L173.456 277.012C174.124 277.399 174.476 277.779 174.793 277.751C176.242 277.645 177.685 277.385 179.134 277.244C182.069 276.956 185.678 278.039 186.459 282.585C186.59 283.468 186.54 284.368 186.312 285.231C185.933 286.44 185.491 287.628 184.989 288.791C185.404 289.368 185.882 289.987 186.305 290.642C186.772 291.287 187.002 292.074 186.958 292.87C186.913 293.666 186.595 294.422 186.058 295.011C185.502 295.715 184.848 296.334 184.37 296.848C184.37 299.268 184.37 301.506 184.37 303.736C184.37 304.975 184.292 306.213 184.222 307.445C184.229 308.581 183.879 309.691 183.223 310.618C182.567 311.546 181.636 312.245 180.563 312.616C180.464 312.659 180.345 312.673 180.246 312.722L179.507 313.158C179.507 314.305 180.049 315.403 180.366 316.557C180.929 318.612 181.625 320.638 181.471 322.826C181.351 324.607 180.767 325.479 179.022 326C178.164 326.267 177.283 326.456 176.39 326.563C172.809 326.936 169.234 327.147 165.66 326.359C162.462 325.649 159.522 324.068 157.167 321.792C155.872 320.589 154.852 319.442 155.189 317.458C155.282 316.727 155.193 315.985 154.932 315.297C154.671 314.609 154.244 313.995 153.691 313.51C152.668 312.617 151.956 311.422 151.657 310.097C151.464 309.444 151.091 308.859 150.58 308.409C150.058 307.97 149.724 307.347 149.647 306.669C149.569 305.991 149.755 305.309 150.165 304.764C150.454 304.278 150.799 303.828 151.045 303.356C151.643 302.118 151.347 301.246 150.06 300.584C149.476 300.249 148.841 300.011 148.181 299.88C145.732 299.55 143.255 299.318 140.814 299.036C139.146 298.839 137.471 298.635 135.804 298.396C135.247 298.327 134.701 298.19 134.178 297.988C129.492 296.088 128.183 293.196 129.788 288.291C130.585 285.95 131.647 283.707 132.954 281.607C133.586 280.551 134.122 279.442 134.558 278.293C134.758 277.816 134.776 277.283 134.609 276.794C134.441 276.305 134.1 275.894 133.651 275.64C132.427 274.83 130.958 274.474 129.499 274.634C127.484 274.834 125.458 274.898 123.434 274.824C107.25 274.12 93.4935 268.357 82.9388 255.755C82.2985 254.995 81.63 254.256 80.7575 253.271C79.3502 255.136 79.3502 256.986 79.0125 258.703C78.2465 262.788 77.8789 266.938 77.9148 271.094Z" fill="black"/>
<path d="M74.1783 73.4538C76.9929 73.3623 79.4556 73.9815 82.1225 73.9745C82.3687 75.2974 82.6572 76.381 82.7557 77.4927C83.4594 85.2329 84.1138 92.9237 84.8033 100.636C85.9245 113.161 87.055 125.681 88.1949 138.196C89.0745 147.921 89.9189 157.652 90.8688 167.37C91.0998 169.262 90.6698 171.176 89.6515 172.788C88.1316 175.272 86.9213 177.938 85.5703 180.528C85.2185 181.231 84.8667 181.886 84.2827 182.962C84.0343 182.498 83.8339 182.01 83.6846 181.506C83.3749 178.375 83.1146 175.243 82.812 172.112C82.4391 168.207 82.0099 164.302 81.6651 160.396C81.1092 154.24 80.6307 148.083 80.0748 141.926C79.5049 135.593 78.8505 129.204 78.2805 122.836C77.7106 116.468 77.2391 110.072 76.6762 103.697C76.2259 98.5529 75.6841 93.4233 75.2126 88.2867C74.7975 83.8115 74.4175 79.3363 74.0305 74.8611C74.0454 74.389 74.0948 73.9187 74.1783 73.4538Z" fill="black"/>
<path d="M83.6912 59.0147C84.8171 59.2891 85.387 58.6558 86.0203 58.3111C89.2135 56.4399 92.614 54.9475 96.1528 53.864C102.591 51.8164 109.128 50.4654 115.939 50.6413C118.684 50.7187 121.287 51.1268 123.68 52.5834C123.905 52.7171 124.285 52.5834 124.552 52.5834C124.911 51.7742 124.383 51.4857 123.933 51.2113C121.971 50.0816 119.769 49.4352 117.509 49.3255C112.807 48.9335 108.074 49.1702 103.436 50.0291C98.4538 50.9157 93.5845 52.2175 89.1586 54.7647C87.2517 55.8976 85.2111 57.0375 83.6912 59.0147ZM18.4139 57.8396C19.7156 58.6277 20.2152 57.2767 20.9611 56.6153C20.1097 57.0234 19.2583 57.4245 18.4139 57.8396L18.3646 57.6989V57.7693C16.0637 59.5002 13.7276 61.2031 11.4759 62.9974C10.723 63.5955 9.84346 64.2217 9.74495 65.3546C8.00694 66.3678 7.23996 68.1692 6.283 69.7664C5.76934 70.6319 5.35419 71.5537 4.87571 72.4262C1.30118 71.3285 -0.408684 68.5351 0.0768328 64.7354C0.29374 63.0545 0.924811 61.4538 1.91335 60.0772C3.823 57.2945 6.11339 54.7933 8.71762 52.6467C14.443 48.1042 20.463 43.9459 26.738 40.1992C40.1525 32.2025 54.2873 25.4813 68.9569 20.1241C79.7075 16.169 90.6626 12.7937 101.775 10.0127C112.112 7.37404 122.504 5.01682 133.045 3.27881C141.798 1.87152 150.566 0.576808 159.432 0.239058C167.285 -0.0564741 175.151 -0.267568 182.983 0.780866C185.993 1.15143 188.915 2.04689 191.617 3.42658C195.135 5.2631 195.719 8.07065 193.904 11.6241C193.502 12.2885 193.05 12.9213 192.553 13.5169C192.123 13.4184 191.722 13.4465 191.497 13.2565C188.837 11.0893 185.643 10.3786 182.35 10.1323C176.972 9.82172 171.578 10.2574 166.321 11.427C167.657 11.427 168.994 11.4974 170.331 11.4974C174.94 11.4974 179.556 11.3285 184.109 12.1448C185.877 12.4233 187.609 12.8952 189.273 13.5521C191.272 14.3964 191.722 16.5848 190.35 18.3158C189.551 19.2574 188.652 20.1091 187.669 20.8559C180.984 26.1791 173.907 30.9893 166.496 35.2455C156.645 40.9169 146.555 46.0606 136.458 51.2183C133.256 52.8578 129.998 54.3847 126.853 56.1438C124.299 57.5511 121.794 59.0569 119.38 60.6964C115.419 63.3844 111.035 65.059 106.511 66.4241C100.596 68.2874 94.4146 69.16 88.2157 69.0065C86.2947 68.9432 84.3738 68.8306 82.6358 67.9158C81.6199 67.4126 80.4462 67.3316 79.3708 67.6907C76.9734 68.2215 74.6058 68.8791 72.2781 69.6609C67.5003 71.4904 62.4903 72.1237 57.5015 72.8695C46.3812 74.4729 35.1499 75.1788 23.9164 74.9805C20.7711 74.9453 17.5836 75.0579 14.4735 74.9453C12.7917 74.892 11.1221 74.6416 9.49867 74.1994C7.20478 73.5521 6.68408 72.2433 7.68326 70.0972C8.38691 68.5843 9.24536 67.1348 10.0405 65.6501C12.7354 63.3844 15.4304 61.1045 18.1465 58.8529C18.2688 58.7758 18.3664 58.6652 18.4276 58.5342C18.4887 58.4031 18.5108 58.2573 18.4913 58.114C18.4732 58.0274 18.4473 57.9426 18.4139 57.8607V57.8396ZM79.8634 65.2561C79.9056 64.9465 79.9197 64.6368 79.9408 64.3272C79.8001 64.3272 79.5608 64.3695 79.5397 64.4398C79.4787 64.7224 79.4411 65.0095 79.4271 65.2983C79.5736 65.298 79.7196 65.2839 79.8634 65.2561Z" fill="black"/>
<path d="M483.645 318.485L496.817 288.594H500.49L513.289 318.485H508.547L505.556 311.104H491.336L488.366 318.485H483.645ZM492.757 307.557H504.072L498.506 293.829H498.428L492.757 307.557Z" fill="#231F20"/>
<path d="M524.618 318.485V298.466H528.439V301.562H528.523C529.056 300.445 529.938 299.531 531.035 298.959C532.282 298.288 533.68 297.948 535.095 297.974C537.019 297.908 538.892 298.6 540.31 299.902C541.689 301.182 542.378 303.082 542.378 305.601V318.485H538.564V306.671C538.564 304.911 538.135 303.617 537.277 302.772C536.843 302.356 536.33 302.03 535.768 301.815C535.206 301.6 534.606 301.5 534.005 301.52C533.252 301.488 532.502 301.62 531.805 301.905C531.107 302.191 530.48 302.623 529.966 303.173C528.948 304.285 528.439 305.96 528.439 308.198V318.506L524.618 318.485Z" fill="#231F20"/>
<path d="M573.874 318.485L587.046 288.594H590.712L603.518 318.485H598.804L595.813 311.104H581.564L578.595 318.485H573.874ZM582.986 307.557H594.3L588.735 293.829H588.65L582.986 307.557Z" fill="#231F20"/>
<path d="M615.818 318.485V288.594H619.913V318.485H615.818Z" fill="#231F20"/>
<path d="M656.165 318.485V288.594H675.459V292.387H660.225V301.288H674.404V305.102H660.225V314.692H676.205V318.485H656.165Z" fill="#231F20"/>
<path d="M689.426 318.485V298.466H693.24V301.562H693.325C693.857 300.444 694.739 299.531 695.837 298.959C697.083 298.287 698.481 297.948 699.897 297.973C701.818 297.906 703.689 298.599 705.104 299.901C706.483 301.182 707.172 303.082 707.172 305.601V318.485H703.359V306.671C703.359 304.911 702.929 303.617 702.071 302.772C701.638 302.355 701.126 302.03 700.566 301.815C700.005 301.599 699.406 301.499 698.806 301.52C698.053 301.487 697.302 301.618 696.605 301.904C695.908 302.189 695.281 302.622 694.767 303.173C693.744 304.285 693.235 305.953 693.24 308.176V318.485H689.426Z" fill="#231F20"/>
<path d="M721.597 303.145C722.405 301.571 723.645 300.26 725.172 299.367C726.799 298.415 728.656 297.928 730.541 297.959C731.914 297.957 733.27 298.262 734.509 298.853C735.715 299.397 736.753 300.255 737.514 301.337H737.591V298.452H741.405V318.302C741.454 319.685 741.21 321.063 740.689 322.345C740.167 323.627 739.38 324.784 738.379 325.739C736.367 327.653 733.721 328.61 730.463 328.61C726.846 328.733 723.323 327.438 720.647 325.001L723.223 321.806C724.114 322.832 725.214 323.655 726.45 324.221C727.685 324.786 729.027 325.081 730.386 325.085C731.585 325.116 732.779 324.918 733.904 324.501C734.788 324.18 735.565 323.62 736.149 322.883C736.647 322.223 737.028 321.483 737.275 320.694C737.512 319.878 737.629 319.032 737.619 318.182V315.213H737.5C736.807 316.356 735.798 317.272 734.594 317.852C733.34 318.46 731.962 318.771 730.569 318.759C728.737 318.78 726.932 318.319 725.334 317.422C723.794 316.553 722.526 315.274 721.668 313.728C720.804 312.158 720.363 310.39 720.387 308.599C720.342 306.71 720.758 304.838 721.597 303.145ZM724.412 308.486C724.368 309.376 724.503 310.265 724.807 311.103C725.112 311.94 725.58 312.708 726.185 313.362C727.512 314.537 729.222 315.186 730.995 315.186C732.767 315.186 734.477 314.537 735.804 313.362C736.411 312.709 736.882 311.942 737.187 311.104C737.493 310.267 737.628 309.376 737.584 308.486C737.662 306.64 737.019 304.835 735.79 303.455C734.502 302.214 732.783 301.52 730.995 301.52C729.206 301.52 727.487 302.214 726.199 303.455C724.978 304.839 724.34 306.642 724.419 308.486H724.412Z" fill="#231F20"/>
<path d="M755.787 293.252C755.278 292.727 754.993 292.024 754.993 291.292C754.993 290.561 755.278 289.858 755.787 289.333C756.046 289.072 756.353 288.865 756.692 288.724C757.031 288.583 757.394 288.51 757.761 288.51C758.128 288.51 758.492 288.583 758.83 288.724C759.169 288.865 759.476 289.072 759.735 289.333C760.107 289.728 760.357 290.223 760.454 290.758C760.552 291.292 760.492 291.843 760.283 292.345C760.074 292.846 759.724 293.276 759.276 293.583C758.828 293.891 758.301 294.061 757.758 294.075C757.39 294.082 757.025 294.012 756.686 293.87C756.347 293.728 756.041 293.518 755.787 293.252ZM755.851 318.485V298.466H759.665V318.485H755.851Z" fill="#231F20"/>
<path d="M774.125 318.485V298.466H777.938V301.562H778.023C778.555 300.445 779.437 299.531 780.535 298.959C781.784 298.287 783.184 297.948 784.602 297.974C786.523 297.909 788.393 298.601 789.809 299.902C791.188 301.182 791.878 303.082 791.878 305.601V318.485H788.085V306.671C788.085 304.911 787.656 303.617 786.797 302.772C786.364 302.355 785.85 302.029 785.288 301.814C784.726 301.599 784.127 301.499 783.525 301.52C782.773 301.488 782.022 301.62 781.325 301.905C780.628 302.19 780.001 302.623 779.486 303.173C778.473 304.285 777.959 305.953 777.959 308.176V318.485H774.125Z" fill="#231F20"/>
<path d="M804.853 308.486C804.813 307.1 805.053 305.72 805.558 304.429C806.063 303.138 806.824 301.962 807.794 300.971C808.754 299.986 809.908 299.21 811.184 298.694C812.459 298.178 813.828 297.933 815.203 297.974C816.465 297.959 817.72 298.163 818.912 298.579C819.934 298.928 820.877 299.479 821.684 300.197C822.433 300.885 823.061 301.693 823.542 302.589C824.035 303.489 824.399 304.453 824.625 305.453C824.847 306.463 824.958 307.494 824.956 308.528V309.865H808.92C808.899 310.677 809.07 311.482 809.418 312.216C809.767 312.949 810.283 313.59 810.925 314.087C812.258 315.179 813.937 315.761 815.661 315.727C817.678 315.727 819.505 314.725 821.142 312.722L824.027 314.924C821.921 317.664 818.965 319.031 815.161 319.027C813.775 319.085 812.392 318.85 811.103 318.337C809.814 317.824 808.648 317.045 807.681 316.05C806.734 315.038 805.997 313.849 805.512 312.551C805.026 311.252 804.802 309.871 804.853 308.486ZM808.92 306.84H820.882C820.912 305.289 820.362 303.784 819.341 302.618C818.793 302.063 818.133 301.633 817.404 301.355C816.676 301.077 815.897 300.958 815.119 301.006C814.292 300.986 813.469 301.141 812.705 301.46C811.942 301.779 811.254 302.255 810.686 302.857C810.142 303.37 809.705 303.987 809.402 304.67C809.099 305.354 808.935 306.092 808.92 306.84Z" fill="#231F20"/>
<path d="M836.756 308.486C836.715 307.1 836.954 305.72 837.459 304.428C837.965 303.137 838.726 301.961 839.697 300.971C840.658 299.986 841.812 299.21 843.087 298.694C844.363 298.178 845.732 297.933 847.107 297.974C848.369 297.959 849.623 298.163 850.815 298.579C851.838 298.928 852.78 299.479 853.587 300.197C854.337 300.885 854.965 301.693 855.445 302.589C855.938 303.489 856.303 304.453 856.529 305.453C856.75 306.463 856.861 307.494 856.859 308.528V309.865H840.816C840.797 310.677 840.969 311.483 841.319 312.216C841.668 312.95 842.186 313.591 842.829 314.087C844.16 315.178 845.836 315.76 847.557 315.727C849.584 315.727 851.406 314.727 853.046 312.722L855.931 314.924C853.824 317.664 850.869 319.031 847.065 319.027C845.679 319.085 844.296 318.85 843.007 318.337C841.718 317.824 840.552 317.045 839.585 316.05C838.638 315.038 837.901 313.849 837.415 312.551C836.93 311.252 836.706 309.871 836.756 308.486ZM840.816 306.84H852.778C852.808 305.289 852.259 303.784 851.237 302.618C850.689 302.063 850.029 301.633 849.301 301.355C848.573 301.077 847.793 300.958 847.015 301.006C846.188 300.986 845.366 301.141 844.602 301.46C843.838 301.779 843.15 302.255 842.582 302.857C842.038 303.37 841.602 303.987 841.298 304.67C840.995 305.354 840.831 306.092 840.816 306.84Z" fill="#231F20"/>
<path d="M869.834 318.485V298.466H873.648V301.562H873.733C874.252 300.473 875.095 299.571 876.146 298.98C877.221 298.324 878.455 297.976 879.714 297.974C880.286 297.966 880.856 298.05 881.402 298.22L881.234 302.322C880.631 302.147 880.01 302.044 879.383 302.012C875.564 302.012 873.653 304.156 873.648 308.444V318.485H869.834Z" fill="#231F20"/>
<path d="M894.117 293.252C893.6 292.731 893.309 292.027 893.309 291.292C893.309 290.558 893.6 289.853 894.117 289.333C894.37 289.067 894.674 288.856 895.012 288.714C895.35 288.573 895.714 288.503 896.081 288.509C896.481 288.449 896.89 288.475 897.28 288.587C897.669 288.699 898.03 288.894 898.337 289.159C898.644 289.423 898.891 289.75 899.06 290.118C899.229 290.487 899.316 290.887 899.316 291.292C899.316 291.698 899.229 292.098 899.06 292.466C898.891 292.835 898.644 293.162 898.337 293.426C898.03 293.69 897.669 293.885 897.28 293.997C896.89 294.109 896.481 294.136 896.081 294.075C895.714 294.082 895.35 294.012 895.012 293.87C894.674 293.729 894.37 293.518 894.117 293.252ZM894.174 318.485V298.466H897.987V318.485H894.174Z" fill="#231F20"/>
<path d="M912.455 318.485V298.466H916.268V301.562H916.346C916.883 300.446 917.767 299.533 918.865 298.959C920.111 298.287 921.509 297.948 922.925 297.974C924.846 297.908 926.716 298.6 928.132 299.901C929.511 301.182 930.201 303.082 930.201 305.601V318.485H926.387V306.671C926.387 304.911 925.958 303.617 925.099 302.772C924.667 302.355 924.155 302.03 923.594 301.815C923.033 301.599 922.435 301.499 921.834 301.52C921.08 301.488 920.329 301.619 919.63 301.904C918.932 302.19 918.304 302.623 917.788 303.173C916.775 304.285 916.268 305.953 916.268 308.176V318.485H912.455Z" fill="#231F20"/>
<path d="M944.625 303.145C945.43 301.569 946.671 300.258 948.2 299.367C949.827 298.415 951.684 297.928 953.569 297.959C954.942 297.959 956.297 298.264 957.537 298.853C958.742 299.395 959.778 300.254 960.535 301.337H960.619V298.452H964.433V318.302C964.482 319.685 964.238 321.063 963.717 322.345C963.195 323.627 962.408 324.783 961.407 325.739C959.381 327.649 956.74 328.603 953.484 328.603C949.869 328.724 946.35 327.429 943.675 324.993L946.251 321.799C947.144 322.83 948.249 323.656 949.489 324.223C950.73 324.79 952.078 325.084 953.442 325.085C954.641 325.118 955.836 324.92 956.96 324.501C957.846 324.18 958.625 323.62 959.212 322.883C959.71 322.224 960.089 321.484 960.331 320.694C960.571 319.879 960.69 319.032 960.683 318.182V315.213H960.479C959.79 316.358 958.779 317.276 957.572 317.851C956.321 318.461 954.946 318.771 953.555 318.759C951.723 318.78 949.917 318.319 948.32 317.422C946.777 316.555 945.505 315.276 944.647 313.728C943.785 312.157 943.346 310.39 943.373 308.599C943.338 306.706 943.768 304.833 944.625 303.145ZM947.44 308.486C947.396 309.376 947.531 310.265 947.835 311.103C948.14 311.94 948.608 312.708 949.213 313.362C950.54 314.537 952.251 315.186 954.023 315.186C955.795 315.186 957.505 314.537 958.832 313.362C959.439 312.709 959.91 311.942 960.215 311.104C960.521 310.267 960.656 309.376 960.612 308.486C960.69 306.64 960.047 304.835 958.818 303.455C957.529 302.213 955.809 301.519 954.019 301.519C952.229 301.519 950.509 302.213 949.22 303.455C948.002 304.84 947.366 306.643 947.447 308.486H947.44Z" fill="#231F20"/>
<path d="M997.877 303.786C997.828 300.92 998.504 298.088 999.84 295.553C1001.11 293.174 1003.03 291.203 1005.37 289.868C1007.84 288.483 1010.63 287.779 1013.46 287.827C1015.49 287.822 1017.5 288.221 1019.37 289.002C1021.18 289.727 1022.75 290.925 1023.93 292.471L1020.55 295.046C1019.7 293.962 1018.61 293.098 1017.35 292.527C1016.1 291.93 1014.73 291.62 1013.34 291.62C1011.3 291.581 1009.3 292.125 1007.57 293.189C1005.83 294.253 1004.44 295.791 1003.56 297.622C1002.61 299.538 1002.13 301.649 1002.15 303.786C1002.12 305.796 1002.57 307.785 1003.46 309.591C1004.33 311.334 1005.68 312.796 1007.34 313.813C1009.13 314.91 1011.2 315.472 1013.3 315.431C1014.84 315.477 1016.36 315.132 1017.72 314.43C1019.09 313.727 1020.26 312.689 1021.11 311.413L1024.54 313.989C1024.27 314.351 1023.99 314.697 1023.68 315.023C1023.2 315.502 1022.68 315.944 1022.13 316.346C1021.44 316.887 1020.69 317.358 1019.91 317.753C1018.96 318.209 1017.96 318.559 1016.94 318.794C1013.97 319.51 1010.86 319.356 1007.98 318.351C1006.42 317.807 1004.97 316.995 1003.68 315.952C1002.47 314.945 1001.41 313.773 1000.53 312.469C999.653 311.169 998.975 309.746 998.518 308.247C998.087 306.799 997.871 305.296 997.877 303.786Z" fill="#231F20"/>
<path d="M1037.34 313.77C1036.65 312.574 1036.19 311.25 1036.01 309.877C1035.82 308.503 1035.91 307.107 1036.27 305.768C1036.63 304.43 1037.25 303.176 1038.1 302.078C1038.94 300.98 1040 300.061 1041.2 299.374C1042.84 298.456 1044.7 297.974 1046.58 297.974C1048.46 297.974 1050.32 298.456 1051.96 299.374C1053.56 300.292 1054.9 301.619 1055.83 303.219C1056.76 304.819 1057.24 306.636 1057.24 308.486C1057.24 310.336 1056.76 312.153 1055.83 313.753C1054.9 315.353 1053.56 316.68 1051.96 317.598C1050.32 318.516 1048.46 318.998 1046.58 318.998C1044.7 318.998 1042.84 318.516 1041.2 317.598C1039.59 316.693 1038.26 315.371 1037.34 313.77ZM1041.78 303.455C1040.63 304.879 1040 306.655 1040 308.486C1040 310.317 1040.63 312.093 1041.78 313.517C1043.07 314.759 1044.79 315.453 1046.58 315.453C1048.37 315.453 1050.09 314.759 1051.38 313.517C1052.54 312.097 1053.18 310.32 1053.18 308.486C1053.18 306.652 1052.54 304.875 1051.38 303.455C1050.09 302.213 1048.37 301.519 1046.58 301.519C1044.79 301.519 1043.07 302.213 1041.78 303.455Z" fill="#231F20"/>
<path d="M1070.42 318.485V298.466H1073.94V301.597H1074.02C1074.18 301.196 1074.42 300.832 1074.72 300.528C1075.12 300.082 1075.56 299.685 1076.05 299.346C1076.66 298.918 1077.33 298.585 1078.04 298.361C1078.82 298.102 1079.65 297.971 1080.48 297.974C1081.77 297.898 1083.06 298.211 1084.17 298.872C1085.28 299.533 1086.17 300.511 1086.73 301.682C1087.33 300.52 1088.26 299.564 1089.41 298.938C1090.52 298.31 1091.78 297.978 1093.06 297.974C1098.13 297.974 1100.66 300.929 1100.67 306.84V318.485H1096.85V307.332C1096.86 306.74 1096.82 306.147 1096.75 305.559C1096.69 305.024 1096.57 304.497 1096.39 303.99C1096.22 303.511 1095.97 303.067 1095.64 302.681C1095.3 302.306 1094.87 302.017 1094.4 301.837C1093.8 301.612 1093.17 301.505 1092.54 301.52C1090.78 301.52 1089.49 302.055 1088.68 303.124C1087.79 304.427 1087.36 305.985 1087.45 307.557V318.485H1083.62V308.015C1083.62 307.17 1083.62 306.453 1083.53 305.854C1083.48 305.257 1083.36 304.667 1083.18 304.095C1083.05 303.583 1082.81 303.104 1082.48 302.688C1082.14 302.305 1081.72 302.01 1081.25 301.83C1080.66 301.605 1080.03 301.497 1079.4 301.513C1078.7 301.501 1078.01 301.645 1077.37 301.934C1076.73 302.224 1076.17 302.652 1075.71 303.188C1074.72 304.313 1074.23 305.955 1074.23 308.113V318.506L1070.42 318.485Z" fill="#231F20"/>
<path d="M1114.82 330.398V298.466H1118.63V301.351H1118.71C1119.47 300.268 1120.51 299.409 1121.71 298.867C1122.95 298.278 1124.31 297.973 1125.68 297.974C1127.13 297.954 1128.56 298.23 1129.9 298.783C1131.12 299.289 1132.22 300.05 1133.12 301.013C1134 301.983 1134.69 303.116 1135.14 304.349C1135.62 305.675 1135.86 307.076 1135.84 308.486C1135.94 311.274 1134.92 313.985 1133.03 316.029C1132.08 317.017 1130.93 317.793 1129.67 318.305C1128.4 318.816 1127.03 319.053 1125.67 318.999C1124.26 319.006 1122.88 318.693 1121.61 318.084C1120.43 317.547 1119.43 316.695 1118.7 315.621H1118.62V330.398H1114.82ZM1120.45 303.455C1119.29 304.877 1118.66 306.653 1118.66 308.486C1118.66 310.319 1119.29 312.095 1120.45 313.517C1121.73 314.758 1123.45 315.452 1125.24 315.452C1127.03 315.452 1128.75 314.758 1130.04 313.517C1131.2 312.097 1131.83 310.32 1131.83 308.486C1131.83 306.652 1131.2 304.875 1130.04 303.455C1128.75 302.214 1127.03 301.52 1125.24 301.52C1123.45 301.52 1121.73 302.214 1120.45 303.455Z" fill="#231F20"/>
<path d="M1149.06 316.254C1148.4 315.298 1148.06 314.158 1148.08 312.996C1148.06 311.856 1148.36 310.731 1148.94 309.753C1149.53 308.826 1150.36 308.08 1151.34 307.599C1152.44 307.055 1153.61 306.667 1154.82 306.445C1156.24 306.186 1157.68 306.061 1159.12 306.073H1161.93V305.228C1161.94 304.675 1161.83 304.127 1161.62 303.617C1161.4 303.107 1161.09 302.645 1160.69 302.259C1160.22 301.823 1159.67 301.486 1159.06 301.27C1158.46 301.053 1157.82 300.961 1157.18 300.999C1156.86 300.999 1156.56 300.999 1156.28 301.034C1156 301.057 1155.72 301.104 1155.44 301.175C1155.17 301.253 1154.94 301.309 1154.74 301.351C1154.5 301.41 1154.26 301.5 1154.04 301.618C1153.78 301.759 1153.59 301.851 1153.47 301.9C1153.27 301.998 1153.08 302.111 1152.9 302.238L1152.42 302.568L1151.91 302.948C1151.64 303.166 1151.49 303.279 1151.46 303.293L1149.16 300.922C1150.21 299.938 1151.45 299.189 1152.81 298.726C1154.19 298.229 1155.64 297.974 1157.1 297.974C1158.38 297.953 1159.66 298.136 1160.89 298.515C1161.87 298.812 1162.76 299.324 1163.52 300.014C1164.14 300.612 1164.64 301.33 1164.98 302.125C1165.3 302.921 1165.46 303.772 1165.46 304.63V314.854C1165.44 316.067 1165.5 317.279 1165.63 318.485H1162.24C1162.16 317.465 1162.12 316.458 1162.12 315.452H1162.04C1161.32 316.606 1160.31 317.543 1159.1 318.161C1157.83 318.746 1156.44 319.033 1155.04 318.999C1153.86 319.01 1152.68 318.77 1151.6 318.295C1150.58 317.865 1149.7 317.159 1149.06 316.254ZM1151.87 312.694C1151.87 314.861 1153.31 315.945 1156.18 315.945C1157.09 315.964 1157.99 315.786 1158.83 315.424C1159.54 315.117 1160.15 314.632 1160.62 314.017C1161.03 313.453 1161.35 312.826 1161.57 312.159C1161.77 311.491 1161.87 310.796 1161.87 310.097V308.845H1159.86C1154.53 308.854 1151.87 310.137 1151.87 312.694Z" fill="#231F20"/>
<path d="M1179.39 318.485V298.466H1183.2V301.562H1183.28C1183.82 300.446 1184.7 299.533 1185.8 298.959C1187.05 298.287 1188.44 297.948 1189.86 297.974C1191.78 297.908 1193.65 298.6 1195.07 299.901C1196.45 301.182 1197.14 303.082 1197.14 305.601V318.485H1193.32V306.671C1193.32 304.911 1192.89 303.617 1192.03 302.772C1191.6 302.355 1191.09 302.03 1190.53 301.815C1189.97 301.599 1189.37 301.499 1188.77 301.52C1188.02 301.488 1187.26 301.619 1186.57 301.904C1185.87 302.19 1185.24 302.623 1184.72 303.173C1183.71 304.285 1183.2 305.953 1183.2 308.176V318.485H1179.39Z" fill="#231F20"/>
<path d="M1208.9 298.466H1213.29L1219.22 314.094H1219.31L1224.98 298.466H1229.06L1219.58 322.791C1219.26 323.586 1218.98 324.241 1218.73 324.747C1218.46 325.3 1218.14 325.83 1217.78 326.33C1217.45 326.822 1217.03 327.251 1216.55 327.597C1216.05 327.927 1215.5 328.176 1214.92 328.336C1214.21 328.539 1213.47 328.636 1212.74 328.624C1211.58 328.652 1210.44 328.463 1209.35 328.068L1209.82 324.607C1210.54 324.901 1211.32 325.054 1212.1 325.057C1212.54 325.095 1212.98 325.045 1213.4 324.911C1213.82 324.777 1214.21 324.561 1214.54 324.276C1215.18 323.551 1215.66 322.703 1215.95 321.785L1217.17 318.604L1208.9 298.466Z" fill="#231F20"/>
<path d="M435.262 131.385C432.447 127.764 428.509 124.731 423.448 122.287C418.665 119.923 413.408 118.672 408.073 118.628C404.972 118.634 401.883 119.021 398.876 119.782C395.918 120.505 393.097 121.705 390.524 123.335C388.021 124.933 385.911 127.077 384.353 129.605C382.693 132.42 381.861 135.647 381.954 138.914C381.873 141.909 382.602 144.87 384.065 147.485C385.507 149.908 387.471 151.98 389.813 153.55C392.577 155.385 395.564 156.861 398.701 157.941C402.181 159.193 406.016 160.448 410.205 161.705C414.943 163.239 419.869 164.982 424.982 166.933C429.99 168.848 434.705 171.453 438.991 174.674C443.289 177.939 446.851 182.072 449.448 186.804C452.164 191.688 453.522 197.753 453.522 205.001C453.522 212.947 452.058 219.88 449.131 225.801C446.369 231.522 442.37 236.557 437.422 240.542C432.33 244.555 426.506 247.539 420.274 249.33C413.552 251.305 406.579 252.291 399.573 252.258C389.913 252.249 380.34 250.44 371.343 246.924C362.587 243.683 354.811 238.246 348.763 231.134L367.578 213.543C371.331 218.68 376.319 222.787 382.08 225.484C387.627 228.287 393.739 229.788 399.953 229.875C403.125 229.863 406.285 229.478 409.368 228.728C412.479 227.999 415.423 226.685 418.044 224.858C420.593 223.067 422.726 220.749 424.299 218.06C425.904 215.337 426.706 211.967 426.706 207.921C426.706 204.013 425.8 200.772 423.99 198.196C422.034 195.489 419.543 193.211 416.672 191.505C413.244 189.455 409.595 187.803 405.793 186.579L392.635 182.195C388.089 180.774 383.625 179.099 379.266 177.178C374.868 175.265 370.809 172.651 367.247 169.438C363.581 166.116 360.613 162.098 358.515 157.617C356.287 152.954 355.173 147.135 355.173 140.16C355.173 132.654 356.74 126.171 359.873 120.711C362.943 115.357 367.163 110.753 372.229 107.229C377.506 103.59 383.378 100.901 389.581 99.2847C396.027 97.551 402.672 96.6733 409.347 96.6742C417.14 96.7156 424.873 98.0496 432.229 100.622C439.736 103.14 446.625 107.216 452.445 112.584L435.262 131.385Z" fill="#010101"/>
<path d="M596.482 145.184C603.049 145.184 608.659 146.335 613.313 148.638C617.786 150.772 621.725 153.881 624.839 157.737C627.876 161.575 630.115 165.982 631.425 170.698C632.827 175.594 633.538 180.663 633.536 185.756V248.486H608.401V192.863C608.39 189.787 608.181 186.715 607.775 183.666C607.407 180.629 606.484 177.686 605.052 174.983C603.675 172.428 601.703 170.241 599.303 168.608C596.859 166.933 593.618 166.096 589.579 166.096C586.067 165.995 582.595 166.865 579.545 168.608C576.798 170.238 574.442 172.45 572.642 175.089C570.803 177.793 569.457 180.802 568.666 183.976C567.847 187.152 567.426 190.419 567.414 193.7V248.486H542.322V187.874C542.322 181.597 540.823 176.404 537.826 172.295C534.828 168.186 530.123 166.129 523.71 166.124C520.271 166.037 516.871 166.868 513.859 168.531C511.163 170.053 508.84 172.159 507.062 174.695C505.265 177.336 503.928 180.262 503.108 183.349C502.207 186.582 501.75 189.922 501.75 193.278V248.486H476.665V148.111H500.497V164.217H500.919C502.07 161.643 503.584 159.247 505.416 157.103C507.373 154.801 509.623 152.765 512.107 151.045C514.828 149.16 517.827 147.712 520.994 146.753C524.588 145.673 528.325 145.143 532.077 145.184C539.883 145.184 546.366 146.926 551.526 150.412C556.655 153.871 560.768 158.637 563.438 164.217C566.509 158.37 571.136 153.486 576.808 150.102C582.39 146.818 588.943 145.177 596.468 145.177" fill="#010101"/>
<path d="M723.201 235.722H722.575C720.061 240.183 716.017 243.842 710.444 246.699C704.546 249.627 698.03 251.096 691.446 250.984C687.177 250.958 682.927 250.434 678.78 249.422C674.461 248.404 670.355 246.634 666.649 244.194C662.911 241.706 659.77 238.421 657.453 234.575C655.009 230.602 653.787 225.688 653.787 219.834C653.787 212.304 655.914 206.309 660.169 201.848C664.423 197.387 669.895 193.97 676.585 191.596C683.787 189.122 691.267 187.543 698.855 186.896C707.013 186.126 714.987 185.744 722.779 185.749V183.237C722.779 176.965 720.513 172.33 715.982 169.333C711.451 166.335 706.056 164.836 699.798 164.836C694.522 164.824 689.306 165.962 684.515 168.172C680.019 170.147 675.911 172.909 672.384 176.327L659.423 161.065C665.122 155.786 671.848 151.738 679.181 149.173C686.461 146.556 694.138 145.212 701.874 145.198C710.787 145.198 718.14 146.452 723.933 148.962C729.727 151.472 734.291 154.756 737.626 158.813C740.94 162.771 743.342 167.41 744.663 172.401C745.971 177.313 746.638 182.375 746.647 187.459V248.521H723.23L723.201 235.722ZM722.779 202.686H717.15C713.106 202.686 708.854 202.859 704.393 203.206C700.208 203.506 696.07 204.278 692.058 205.507C688.612 206.518 685.41 208.226 682.65 210.524C680.141 212.691 678.886 215.654 678.886 219.411C678.804 221.508 679.34 223.583 680.427 225.378C681.463 226.972 682.862 228.298 684.508 229.248C686.253 230.261 688.156 230.975 690.137 231.359C692.204 231.773 694.306 231.982 696.414 231.985C705.054 231.985 711.605 229.685 716.066 225.083C720.528 220.481 722.758 214.209 722.758 206.267L722.779 202.686Z" fill="#010101"/>
<path d="M782.378 148.111H806.422V164.844H806.844C809.469 159.181 813.5 154.286 818.553 150.623C823.677 146.963 829.848 145.057 836.144 145.191C837.115 145.191 838.163 145.191 839.282 145.289C840.276 145.339 841.259 145.514 842.209 145.81V168.812C840.799 168.449 839.368 168.171 837.924 167.982C836.778 167.843 835.624 167.773 834.469 167.771C828.756 167.771 824.156 168.814 820.671 170.902C817.422 172.771 814.635 175.347 812.515 178.438C810.648 181.163 809.301 184.209 808.54 187.424C807.935 189.819 807.586 192.272 807.498 194.742V248.486H782.406L782.378 148.111Z" fill="#010101"/>
<path d="M860.561 168.172V148.111H878.152V119.05H902.829V148.111H927.921V168.172H902.829V214.802C902.829 219.268 903.631 222.962 905.235 225.885C906.839 228.807 910.428 230.271 916.001 230.276C917.826 230.264 919.646 230.089 921.44 229.755C923.242 229.453 924.998 228.926 926.668 228.186L927.506 247.846C924.927 248.767 922.264 249.432 919.554 249.83C916.65 250.294 913.714 250.529 910.773 250.534C904.083 250.534 898.647 249.595 894.462 247.719C890.538 246.043 887.117 243.376 884.534 239.979C882.06 236.637 880.348 232.794 879.517 228.721C878.579 224.215 878.121 219.623 878.152 215.021V168.172H860.561Z" fill="#010101"/>
<path d="M1060.7 135.15C1056.84 129.885 1051.53 125.852 1045.43 123.539C1039.16 121.039 1032.47 119.798 1025.72 119.888C1018.97 119.979 1012.31 121.399 1006.12 124.067C999.995 126.757 994.488 130.669 989.933 135.565C985.352 140.528 981.798 146.349 979.477 152.692C976.992 159.525 975.752 166.748 975.818 174.019C975.726 181.559 976.93 189.059 979.378 196.191C981.559 202.565 985.009 208.432 989.518 213.437C993.916 218.258 999.301 222.074 1005.31 224.625C1011.86 227.357 1018.91 228.71 1026.01 228.601C1033.96 228.601 1040.99 227.032 1047.12 223.894C1052.98 220.983 1058.07 216.719 1061.97 211.453L1083.07 226.3C1076.63 234.438 1068.4 240.984 1059.02 245.432C1049.54 249.964 1038.46 252.229 1025.78 252.229C1014.88 252.35 1004.06 250.399 993.887 246.481C984.551 242.912 976.059 237.441 968.95 230.415C961.841 223.389 956.27 214.962 952.59 205.669C948.688 196.128 946.734 185.573 946.729 174.005C946.729 162.16 948.786 151.462 952.9 141.912C956.779 132.692 962.552 124.391 969.844 117.544C977.196 110.745 985.832 105.482 995.246 102.064C1005.43 98.3616 1016.19 96.5192 1027.03 96.6249C1032.01 96.6452 1036.98 97.0996 1041.88 97.9829C1046.95 98.8685 1051.93 100.269 1056.72 102.163C1061.41 104.034 1065.89 106.393 1070.09 109.199C1074.21 111.914 1077.83 115.315 1080.8 119.254L1060.7 135.15Z" fill="#010101"/>
<path d="M1096.28 197.88C1096.18 190.447 1097.64 183.075 1100.57 176.243C1103.27 169.972 1107.22 164.316 1112.18 159.615C1117.19 154.932 1123.09 151.304 1129.53 148.948C1143.31 143.929 1158.41 143.929 1172.19 148.948C1178.63 151.272 1184.52 154.893 1189.49 159.589C1194.47 164.284 1198.43 169.953 1201.13 176.243C1204.05 183.076 1205.51 190.447 1205.41 197.88C1205.5 205.348 1204.04 212.754 1201.13 219.629C1198.42 225.957 1194.47 231.68 1189.52 236.461C1184.5 241.219 1178.61 244.948 1172.16 247.438C1158.44 252.739 1143.23 252.739 1129.5 247.438C1123.06 244.948 1117.16 241.219 1112.15 236.461C1107.19 231.683 1103.24 225.96 1100.54 219.629C1097.62 212.755 1096.16 205.348 1096.25 197.88H1096.28ZM1121.77 197.88C1121.77 201.849 1122.37 205.795 1123.54 209.588C1124.66 213.372 1126.47 216.917 1128.88 220.045C1131.31 223.163 1134.37 225.73 1137.87 227.574C1141.49 229.53 1145.81 230.505 1150.83 230.501C1155.84 230.496 1160.17 229.52 1163.8 227.574C1167.29 225.73 1170.36 223.163 1172.79 220.045C1175.19 216.913 1177 213.37 1178.12 209.588C1179.29 205.795 1179.89 201.849 1179.9 197.88C1179.89 193.945 1179.29 190.033 1178.12 186.277C1176.98 182.535 1175.17 179.029 1172.79 175.926C1170.37 172.82 1167.3 170.285 1163.8 168.502C1160.17 166.626 1155.85 165.688 1150.83 165.688C1145.81 165.688 1141.49 166.626 1137.87 168.502C1134.36 170.28 1131.29 172.81 1128.87 175.912C1126.48 179.011 1124.67 182.518 1123.53 186.263C1122.36 190.019 1121.76 193.931 1121.76 197.866" fill="#010101"/>
<path d="M1213.55 148.111H1240.74L1261.65 220.052H1262.07L1283.61 148.111H1310.37L1332.12 220.052H1332.54L1353.87 148.111H1380L1345.29 248.486H1319.78L1296.98 178.227H1296.57L1273.99 248.486H1248.47L1213.55 148.111Z" fill="#010101"/>
</g>
<defs>
<clipPath id="clip0">
<rect width="1380" height="352.358" fill="white"/>
</clipPath>
</defs>
</svg>
